<svg id="Ebene_1" data-name="Ebene 1" xmlns="http://www.w3.org/2000/svg" viewBox="0 0 1700 344.16"><defs><style>.cls-1{fill:#979699;}</style></defs><title>logo_simulations_1</title><path class="cls-1" d="M31.44,10.41C44.94,7.6,59.56,16,63.93,28.87A28.59,28.59,0,0,1,59.74,56.3,29,29,0,0,1,34.87,67.53c-13.4-.78-25-11.89-26.61-25a29,29,0,0,1,7.22-23,29.88,29.88,0,0,1,16-9.11Z"/><path class="cls-1" d="M150.35,89.44c15.51-2.33,32.28.22,45.34,9.27C204.93,105.12,210,116,212,126.78c1.32,8.5,1.22,17.13,1.22,25.71,0,30.73,0,92.21,0,92.21H187.33s0-49.74,0-74.6c-.17-10.74.5-21.54-.83-32.23-.68-6.15-2.55-12.42-6.8-17.07-5.83-6.49-14.64-9.66-23.23-9.67-12.38-.45-25.25,4.59-33,14.4-7.49,10.71-8.21,24.33-8.44,37,0,27.42,0,82.17,0,82.17H89.21V92.18H112.3v21.15a89,89,0,0,1,6.3-7.28,52.79,52.79,0,0,1,31.75-16.61Z"/><rect class="cls-1" x="23.87" y="92.18" width="26" height="152.46"/><path class="cls-1" d="M314.08,89.31c15.51-2.33,32.28.22,45.34,9.27,9.24,6.41,14.28,17.27,16.29,28.06,1.32,8.49,1.22,17.13,1.22,25.7,0,30.74,0,92.21,0,92.21H351s0-49.74,0-74.61c-.16-10.73.51-21.54-.82-32.23-.67-6.15-2.56-12.43-6.8-17.08-5.82-6.49-14.64-9.66-23.23-9.66-12.37-.46-25.25,4.59-33,14.39-7.48,10.71-8.19,24.33-8.44,36.95,0,27.42,0,82.18,0,82.18H252.93V92H276V113.2a88.68,88.68,0,0,1,6.29-7.27,52.81,52.81,0,0,1,31.75-16.61Z"/><path class="cls-1" d="M640.3,249.14s-130.59,16.79-195.9,25.12c4.62-8.75,50.46-92.43,70.07-128.18-.51-1.89-1.07-3.75-1.74-5.53a38.31,38.31,0,0,0-18.57-20.68,35,35,0,0,0-15.3-3.39H478a35.88,35.88,0,0,0-3.82.22C452.72,155.25,354.5,330.3,354.5,330.3c1.15,0,291.3-39,291.3-39Z"/><path class="cls-1" d="M433.88,175.6a109.8,109.8,0,0,1,.72-22c1.54-11.42,5.47-23.1,13.94-31.27A43.25,43.25,0,0,1,497,114.13a44.77,44.77,0,0,1,21.73,24.17c5.28,14.09,5.51,29.54,3.77,44.33-1.58,12.55-6.23,25.34-16,33.81-7.77,7.23-18.42,10.61-28.94,10.4l-11.18,20.45c15.09,2.12,30.83.41,44.64-6.19a64.65,64.65,0,0,0,32.59-33.73c3.52-8.69,5.07-18,5.93-27.31a140.73,140.73,0,0,0-.5-29.29c-1.82-13.9-7-27.61-16.12-38.36a66.25,66.25,0,0,0-43.75-23.14c-15.79-1.84-32.43.23-46.49,8a62.77,62.77,0,0,0-27.52,29.13c-6.48,13.84-8.23,29.41-8.06,44.54.14,13.19,2.42,26.55,7.75,38.65Z"/><path class="cls-1" d="M76.56,17.91a39.1,39.1,0,0,1,2.39,5.48C83.61,35.28,82.32,49,76.28,60.11q214.44.06,428.88,0c-4.24,7.68-8.41,15.39-12.66,23.07a72.63,72.63,0,0,1,43.68,23.19c17.68-32.44,48.36-88.5,48.36-88.5Z"/><path class="cls-1" d="M833.42,51.08v98.67h-18V89.16q0-1.9.1-4.08t.37-4.42l-28.22,53.52a7.57,7.57,0,0,1-7.14,4.42h-2.86a7.6,7.6,0,0,1-7.14-4.42L742.17,80.46q.2,2.38.34,4.59t.14,4.11v60.59h-18V51.08h15.5q1.29,0,2.31.07a6,6,0,0,1,1.8.37,4.16,4.16,0,0,1,1.43,1,7.56,7.56,0,0,1,1.26,1.8l27.61,52.63q1.29,2.38,2.41,4.9t2.14,5.17q1-2.72,2.14-5.3t2.41-5L811,54.28a7,7,0,0,1,1.29-1.8,4.5,4.5,0,0,1,1.46-1,5.94,5.94,0,0,1,1.77-.37q1-.07,2.35-.07Z"/><path class="cls-1" d="M949.36,100.38a54.33,54.33,0,0,1-3.64,20.06A46.36,46.36,0,0,1,919.51,147a57.54,57.54,0,0,1-41.34,0,47.84,47.84,0,0,1-16-10.57,46.73,46.73,0,0,1-10.3-16,54.31,54.31,0,0,1-3.64-20.06,54,54,0,0,1,3.64-20,46.81,46.81,0,0,1,10.3-15.95,47.85,47.85,0,0,1,16-10.57,57.54,57.54,0,0,1,41.34,0,46.55,46.55,0,0,1,26.21,26.59A53.88,53.88,0,0,1,949.36,100.38Zm-20.88,0a44.08,44.08,0,0,0-2-13.91A29.5,29.5,0,0,0,920.56,76a25.33,25.33,0,0,0-9.32-6.6,35,35,0,0,0-24.85,0A25.25,25.25,0,0,0,877,76a29.49,29.49,0,0,0-5.88,10.47,44.08,44.08,0,0,0-2,13.91,44.31,44.31,0,0,0,2,14A29.11,29.11,0,0,0,877,124.8a25.41,25.41,0,0,0,9.35,6.56,35,35,0,0,0,24.85,0,25.49,25.49,0,0,0,9.32-6.56,29.13,29.13,0,0,0,5.88-10.44A44.31,44.31,0,0,0,928.48,100.38Z"/><path class="cls-1" d="M999.34,51.08a66.85,66.85,0,0,1,17,1.87,32.2,32.2,0,0,1,11.49,5.3,20.25,20.25,0,0,1,6.49,8.33,28.21,28.21,0,0,1,2,10.95,21.57,21.57,0,0,1-1,6.53,19.47,19.47,0,0,1-3.06,5.88,22.7,22.7,0,0,1-5.34,5,32.47,32.47,0,0,1-7.75,3.81q10.06,2.38,14.89,7.75t4.83,13.94a28.05,28.05,0,0,1-2.41,11.63,26.29,26.29,0,0,1-7,9.32,33.2,33.2,0,0,1-11.39,6.15,50,50,0,0,1-15.54,2.21H964.32V51.08Zm-14.62,15.5V93.24h13.4a36.6,36.6,0,0,0,7.62-.71,15.25,15.25,0,0,0,5.58-2.28,10.15,10.15,0,0,0,3.43-4.11,14.47,14.47,0,0,0,1.19-6.15,17.62,17.62,0,0,0-1-6.26,9.26,9.26,0,0,0-3-4.15,13.23,13.23,0,0,0-5.17-2.28,33.7,33.7,0,0,0-7.41-.71Zm17.48,67.52a23.15,23.15,0,0,0,8.06-1.19,13.53,13.53,0,0,0,5.07-3.16,10.83,10.83,0,0,0,2.65-4.52,18.62,18.62,0,0,0,.75-5.27,15.37,15.37,0,0,0-.88-5.37,9.6,9.6,0,0,0-2.86-4,13.48,13.48,0,0,0-5.13-2.55,29.35,29.35,0,0,0-7.79-.88H984.72v27Z"/><path class="cls-1" d="M1075.09,149.75h-20.54V51.08h20.54Z"/><path class="cls-1" d="M1154.31,133.16v16.59h-58.55V51.08h20.4v82.08Z"/><path class="cls-1" d="M1187.29,149.75h-20.54V51.08h20.54Z"/><path class="cls-1" d="M1277.8,67.54H1249v82.21H1228.5V67.54h-28.83V51.08h78.13Z"/><path class="cls-1" d="M1334.71,111.81v37.94h-20.4V111.81l-35.84-60.72h18a6.69,6.69,0,0,1,4.25,1.26,9.07,9.07,0,0,1,2.55,3.23l16.18,31.08q1.63,3.13,3,5.85t2.35,5.44q1-2.72,2.21-5.47t2.82-5.81l16-31.08a10.12,10.12,0,0,1,2.45-3.06,6.17,6.17,0,0,1,4.22-1.43h18.09Z"/><path class="cls-1" d="M778.07,220a7.76,7.76,0,0,1-1.94,2.28,4.24,4.24,0,0,1-2.55.71,6.29,6.29,0,0,1-3.23-1.05q-1.73-1.05-4-2.28a39.23,39.23,0,0,0-5.3-2.28,21.1,21.1,0,0,0-7-1.05q-7.07,0-10.61,3.16a10.56,10.56,0,0,0-3.54,8.26,7.75,7.75,0,0,0,1.94,5.41,16.82,16.82,0,0,0,5.1,3.71,47.17,47.17,0,0,0,7.17,2.79q4,1.22,8.23,2.69a72.7,72.7,0,0,1,8.23,3.43,29,29,0,0,1,7.17,5,22.76,22.76,0,0,1,5.1,7.31,25.58,25.58,0,0,1,1.94,10.51,33.73,33.73,0,0,1-2.35,12.61,29.92,29.92,0,0,1-6.77,10.27,31.32,31.32,0,0,1-10.91,6.9A40.52,40.52,0,0,1,750,300.84a46.57,46.57,0,0,1-9.35-1,53.78,53.78,0,0,1-9-2.65,49.41,49.41,0,0,1-8.13-4.08,35.66,35.66,0,0,1-6.66-5.3l6-9.66a6.06,6.06,0,0,1,2-1.8,5.05,5.05,0,0,1,2.58-.71,7.05,7.05,0,0,1,3.88,1.36q2,1.36,4.69,3a38,38,0,0,0,6.15,3,23.19,23.19,0,0,0,8.4,1.36q7.14,0,11-3.26t3.91-9.72a9.11,9.11,0,0,0-1.94-6.05,15.63,15.63,0,0,0-5.07-3.88,40.24,40.24,0,0,0-7.14-2.69q-4-1.12-8.23-2.48a67.34,67.34,0,0,1-8.23-3.26,25.42,25.42,0,0,1-7.14-5,23.82,23.82,0,0,1-5.07-7.75,29.82,29.82,0,0,1-1.94-11.49,27.31,27.31,0,0,1,8.57-19.86,32,32,0,0,1,10.37-6.46A37.94,37.94,0,0,1,753.79,200a48,48,0,0,1,16.49,2.75,37,37,0,0,1,12.82,7.65Z"/><path class="cls-1" d="M820.09,299.75H799.56V201.08h20.54Z"/><path class="cls-1" d="M949.56,201.08v98.67h-18V239.16q0-1.9.1-4.08t.37-4.42L903.8,284.18a7.57,7.57,0,0,1-7.14,4.42H893.8a7.6,7.6,0,0,1-7.14-4.42l-28.36-53.72q.2,2.38.34,4.59t.14,4.11v60.59h-18V201.08h15.5q1.29,0,2.31.07a6,6,0,0,1,1.8.37,4.17,4.17,0,0,1,1.43,1,7.56,7.56,0,0,1,1.26,1.8l27.61,52.63q1.29,2.38,2.41,4.9t2.14,5.17q1-2.72,2.14-5.3t2.41-5l27.4-52.43a7,7,0,0,1,1.29-1.8,4.5,4.5,0,0,1,1.46-1,5.94,5.94,0,0,1,1.77-.37q1-.07,2.35-.07Z"/><path class="cls-1" d="M1010.56,283.43a22.69,22.69,0,0,0,8.91-1.67,18.32,18.32,0,0,0,6.66-4.73,20.72,20.72,0,0,0,4.15-7.41,31.31,31.31,0,0,0,1.43-9.79V201.08h20.4v58.75a45.59,45.59,0,0,1-2.89,16.49,37.21,37.21,0,0,1-8.26,13,37.66,37.66,0,0,1-13.06,8.5,50.76,50.76,0,0,1-34.71,0,37.58,37.58,0,0,1-13.09-8.5,37.18,37.18,0,0,1-8.26-13,45.57,45.57,0,0,1-2.89-16.49V201.08h20.4v58.75a31.31,31.31,0,0,0,1.43,9.79,20.72,20.72,0,0,0,4.15,7.41,18.3,18.3,0,0,0,6.66,4.73A22.87,22.87,0,0,0,1010.56,283.43Z"/><path class="cls-1" d="M1130.1,283.16v16.59h-58.55V201.08H1092v82.08Z"/><path class="cls-1" d="M1228.91,299.75h-15.84a7,7,0,0,1-4.32-1.26,7.61,7.61,0,0,1-2.48-3.23l-6.66-18.84h-39.3l-6.66,18.84a7.76,7.76,0,0,1-2.38,3.09,6.53,6.53,0,0,1-4.28,1.39h-16l38.56-98.67h20.88Zm-34.27-37.47L1184,232.09q-1-2.38-2-5.58t-2-6.94q-1,3.81-2,7t-2,5.61l-10.61,30.06Z"/><path class="cls-1" d="M1298.2,217.54h-28.83v82.21H1248.9V217.54h-28.83V201.08h78.13Z"/><path class="cls-1" d="M1331,299.75H1310.5V201.08H1331Z"/><path class="cls-1" d="M1447,250.38a54.33,54.33,0,0,1-3.64,20.06A46.37,46.37,0,0,1,1417.2,297a57.54,57.54,0,0,1-41.34,0,47.84,47.84,0,0,1-16-10.57,46.72,46.72,0,0,1-10.3-16,57,57,0,0,1,0-40.09,46.79,46.79,0,0,1,10.3-15.95,47.86,47.86,0,0,1,16-10.57,57.54,57.54,0,0,1,41.34,0,46.56,46.56,0,0,1,26.21,26.59A53.88,53.88,0,0,1,1447,250.38Zm-20.88,0a44.08,44.08,0,0,0-2-13.91,29.5,29.5,0,0,0-5.88-10.47,25.33,25.33,0,0,0-9.32-6.6,35,35,0,0,0-24.85,0,25.27,25.27,0,0,0-9.35,6.6,29.5,29.5,0,0,0-5.88,10.47,48.65,48.65,0,0,0,0,27.88,29.13,29.13,0,0,0,5.88,10.44,25.42,25.42,0,0,0,9.35,6.56,35,35,0,0,0,24.85,0,25.48,25.48,0,0,0,9.32-6.56,29.13,29.13,0,0,0,5.88-10.44A44.31,44.31,0,0,0,1426.17,250.38Z"/><path class="cls-1" d="M1546.53,201.08v98.67H1536a9.24,9.24,0,0,1-4-.78,9.68,9.68,0,0,1-3.2-2.69l-49.16-62.56q.2,2.38.31,4.69t.1,4.28v57.05h-18V201.08h10.74a20.6,20.6,0,0,1,2.21.1,4.92,4.92,0,0,1,1.67.48,6.47,6.47,0,0,1,1.43,1,13.78,13.78,0,0,1,1.5,1.63l49.5,62.83q-.27-2.58-.41-5t-.14-4.59V201.08Z"/><path class="cls-1" d="M1620.65,220a7.75,7.75,0,0,1-1.94,2.28,4.24,4.24,0,0,1-2.55.71,6.28,6.28,0,0,1-3.23-1.05q-1.73-1.05-4-2.28a39.22,39.22,0,0,0-5.3-2.28,21.1,21.1,0,0,0-7-1.05q-7.07,0-10.61,3.16a10.56,10.56,0,0,0-3.54,8.26,7.75,7.75,0,0,0,1.94,5.41,16.82,16.82,0,0,0,5.1,3.71,47.13,47.13,0,0,0,7.17,2.79q4,1.22,8.23,2.69a72.74,72.74,0,0,1,8.23,3.43,29,29,0,0,1,7.17,5,22.77,22.77,0,0,1,5.1,7.31,25.58,25.58,0,0,1,1.94,10.51,33.72,33.72,0,0,1-2.35,12.61,29.91,29.91,0,0,1-6.77,10.27,31.32,31.32,0,0,1-10.91,6.9,40.52,40.52,0,0,1-14.72,2.52,46.58,46.58,0,0,1-9.35-1,53.77,53.77,0,0,1-9-2.65,49.39,49.39,0,0,1-8.13-4.08,35.69,35.69,0,0,1-6.66-5.3l6-9.66a6.05,6.05,0,0,1,2-1.8,5.05,5.05,0,0,1,2.58-.71,7.06,7.06,0,0,1,3.88,1.36q2,1.36,4.69,3a38,38,0,0,0,6.15,3,23.2,23.2,0,0,0,8.4,1.36q7.14,0,11-3.26t3.91-9.72a9.11,9.11,0,0,0-1.94-6.05,15.63,15.63,0,0,0-5.07-3.88,40.23,40.23,0,0,0-7.14-2.69q-4-1.12-8.23-2.48a67.38,67.38,0,0,1-8.23-3.26,25.42,25.42,0,0,1-7.14-5,23.81,23.81,0,0,1-5.07-7.75,29.82,29.82,0,0,1-1.94-11.49,27.3,27.3,0,0,1,8.57-19.86,32,32,0,0,1,10.37-6.46,37.93,37.93,0,0,1,14.11-2.45,48,48,0,0,1,16.49,2.75,37,37,0,0,1,12.82,7.65Z"/></svg>