<svg id="Ebene_1" data-name="Ebene 1" xmlns="http://www.w3.org/2000/svg" viewBox="0 0 1700 344.16"><defs><style>.cls-1,.cls-2{fill:#fff;}.cls-2{font-size:136px;font-family:Lato-Black, Lato;}.cls-3{letter-spacing:-0.04em;}.cls-4{letter-spacing:-0.07em;}</style></defs><title>Zeichenfläche 1 Kopie 7</title><path class="cls-1" d="M31.44,10.41C44.94,7.6,59.56,16,63.93,28.87A28.59,28.59,0,0,1,59.74,56.3,29,29,0,0,1,34.87,67.53c-13.4-.78-25-11.89-26.61-25a29,29,0,0,1,7.22-23,29.88,29.88,0,0,1,16-9.11Z"/><path class="cls-1" d="M150.35,89.44c15.51-2.33,32.28.22,45.34,9.27C204.93,105.12,210,116,212,126.78c1.32,8.5,1.22,17.13,1.22,25.71,0,30.73,0,92.21,0,92.21H187.33s0-49.74,0-74.6c-.17-10.74.5-21.54-.83-32.23-.68-6.15-2.55-12.42-6.8-17.07-5.83-6.49-14.64-9.66-23.23-9.67-12.38-.45-25.25,4.59-33,14.4-7.49,10.71-8.21,24.33-8.44,37,0,27.42,0,82.17,0,82.17H89.21V92.18H112.3v21.15a89,89,0,0,1,6.3-7.28,52.79,52.79,0,0,1,31.75-16.61Z"/><rect class="cls-1" x="23.87" y="92.18" width="26" height="152.46"/><path class="cls-1" d="M314.08,89.31c15.51-2.33,32.28.22,45.34,9.27,9.24,6.41,14.28,17.27,16.29,28.06,1.32,8.49,1.22,17.13,1.22,25.7,0,30.74,0,92.21,0,92.21H351s0-49.74,0-74.61c-.16-10.73.51-21.54-.82-32.23-.67-6.15-2.56-12.43-6.8-17.08-5.82-6.49-14.64-9.66-23.23-9.66-12.37-.46-25.25,4.59-33,14.39-7.48,10.71-8.19,24.33-8.44,36.95,0,27.42,0,82.18,0,82.18H252.93V92H276V113.2a88.68,88.68,0,0,1,6.29-7.27,52.81,52.81,0,0,1,31.75-16.61Z"/><path class="cls-1" d="M640.3,249.14s-130.59,16.79-195.9,25.12c4.62-8.75,50.46-92.43,70.07-128.18-.51-1.89-1.07-3.75-1.74-5.53a38.31,38.31,0,0,0-18.57-20.68,35,35,0,0,0-15.3-3.39H478a35.88,35.88,0,0,0-3.82.22C452.72,155.25,354.5,330.3,354.5,330.3c1.15,0,291.3-39,291.3-39Z"/><path class="cls-1" d="M433.88,175.6a109.8,109.8,0,0,1,.72-22c1.54-11.42,5.47-23.1,13.94-31.27A43.25,43.25,0,0,1,497,114.13a44.77,44.77,0,0,1,21.73,24.17c5.28,14.09,5.51,29.54,3.77,44.33-1.58,12.55-6.23,25.34-16,33.81-7.77,7.23-18.42,10.61-28.94,10.4l-11.18,20.45c15.09,2.12,30.83.41,44.64-6.19a64.65,64.65,0,0,0,32.59-33.73c3.52-8.69,5.07-18,5.93-27.31a140.73,140.73,0,0,0-.5-29.29c-1.82-13.9-7-27.61-16.12-38.36a66.25,66.25,0,0,0-43.75-23.14c-15.79-1.84-32.43.23-46.49,8a62.77,62.77,0,0,0-27.52,29.13c-6.48,13.84-8.23,29.41-8.06,44.54.14,13.19,2.42,26.55,7.75,38.65Z"/><path class="cls-1" d="M76.56,17.91a39.1,39.1,0,0,1,2.39,5.48C83.61,35.28,82.32,49,76.28,60.11q214.44.06,428.88,0c-4.24,7.68-8.41,15.39-12.66,23.07a72.63,72.63,0,0,1,43.68,23.19c17.68-32.44,48.36-88.5,48.36-88.5Z"/><text class="cls-2" transform="translate(714.29 150.16)">MOBILIT<tspan class="cls-3" x="571.19" y="0">Y</tspan><tspan x="656.54" y="0" xml:space="preserve"> </tspan><tspan x="0" y="150">SIMUL</tspan><tspan class="cls-4" x="421.46" y="150">A</tspan><tspan x="508.5" y="150">TIONS</tspan></text></svg>